<svg xmlns="http://www.w3.org/2000/svg" viewBox="0 0 1000 254.02"><defs><style>.cls-1{fill:#fff876;}</style></defs><g id="レイヤー_2" data-name="レイヤー 2"><g id="レイヤー_1-2" data-name="レイヤー 1"><path class="cls-1" d="M149.78,7v17.7a6.22,6.22,0,0,1-6.12,6.23c-21.46.32-80.77-2.77-89.28,2.77-31.94,12-32.19,61.16-.46,73.47.31.12.63.22.95.31,31.23,8.13,58.59-5.31,85.83,23.5,34.58,33,22.8,96.81-22.27,114.06-16.24,9.4-75.54,4.7-101.07,5.18a6.2,6.2,0,0,1-6.3-6.22V226.62a6.22,6.22,0,0,1,6.11-6.23c21.52-.32,81.13,2.77,89.62-2.77,31.84-12.26,32-61.17.49-73.79a8.36,8.36,0,0,0-1-.33c-31.58-8.19-57.78,5.37-86-23.33-35.25-32.88-22.6-97,22.43-114.23C59-3.45,118,1.23,143.47.75A6.22,6.22,0,0,1,149.78,7Z"/><path class="cls-1" d="M279.25,75.13c35.76-.3,69,21.86,82.71,54.63,11.34,20.86,6.25,84.72,6.78,114.06a6.22,6.22,0,0,1-6.22,6.34H345.41a6.23,6.23,0,0,1-6.22-6.23h0a6.22,6.22,0,0,0-9.72-5.14c-44.06,30.09-112.13,11.77-132.26-39.5C171.51,143.27,217.35,73.32,279.25,75.13Zm0,29.46c-78.75,1.21-78.63,118.41,0,119.88C358.05,223.55,358.15,105.22,279.25,104.59Z"/><path class="cls-1" d="M492,75.47a89.51,89.51,0,0,1,82.38,54.46c11.32,21,6.25,84.81,6.78,114.24a6.22,6.22,0,0,1-6.23,6.33h-17a6.23,6.23,0,0,1-6.24-6.11c-1-52.36,16-137.15-59.41-139.45h-.64c-75.49,3.08-58.41,86.94-59.41,139.45A6.23,6.23,0,0,1,426,250.5H409.37a6.21,6.21,0,0,1-6.22-6.34c.58-29.68-4.57-92.85,6.77-114.23C423.61,97.3,456.34,75.28,492,75.47Z"/><path class="cls-1" d="M701.88,75.84c142.81,9.63,100,217.65-34.58,171.52l-.64-.25c-32.17-13.93-54.48-46.39-54.14-81.9V6.35A6.23,6.23,0,0,1,618.75.12h16.66a6.22,6.22,0,0,1,6.22,6.23v80a6.25,6.25,0,0,0,9.67,5.26c14.58-9.89,32.06-15.89,50-15.81C701.47,75.81,701.68,75.82,701.88,75.84Zm-.31,29.43c-78.75,1.2-78.62,118.42,0,119.88C780.38,224.24,780.48,105.9,701.57,105.27Z"/><path class="cls-1" d="M911.54,75.47c117.93,2.94,118,175.56,0,178.46C794,250.87,794.11,78.53,911.54,75.47Zm0,29.46c-78.91,1.15-78.79,118.48,0,119.88C990.34,223.39,990.44,106.07,911.54,104.93Z"/></g></g></svg>